<svg xmlns="http://www.w3.org/2000/svg" viewBox="0 0 23 32"><path fill="#e6eef4" d="M22.069 0H1.104C.494 0 .001.494.001 1.103v29.793c0 .61.494 1.103 1.103 1.103h20.965c.61 0 1.103-.494 1.103-1.103V1.103c0-.61-.494-1.103-1.103-1.103z"/><path d="M13.241 23.172c0 1.369.377 2.739.508 3.171a.11.11 0 0 1-.107.14H9.528a.11.11 0 0 1-.107-.139c.13-.434.509-1.819.509-3.171a3.127 3.127 0 0 1-1.87.599c-2.017 0-3.767-1.694-3.641-3.736.071-1.149.802-2.134 1.777-2.745.978-.614 1.885-.663 2.696-.466a3.507 3.507 0 0 1-.832-2.273 3.529 3.529 0 0 1 4.229-3.457 3.52 3.52 0 0 1 2.771 2.851 3.523 3.523 0 0 1-.781 2.879c.817-.198 1.731-.147 2.717.479.97.616 1.699 1.599 1.765 2.745.118 2.037-1.637 3.724-3.65 3.724a3.18 3.18 0 0 1-1.87-.599zM4.965 8.828l.552-.552h-3.31a.552.552 0 1 0 0 1.104h3.31a.552.552 0 0 0 .552-.552v-.552a.552.552 0 1 0-1.104 0z"/><path d="m5.324 5.093.146-.172.038-.05c.889-1.334-.007-3.188-1.61-3.215h-.037a2.207 2.207 0 0 0-2.207 2.207.552.552 0 1 0 1.104 0c0-.61.494-1.103 1.103-1.103h.028c.699.012 1.117.875.701 1.499l.459.306-.421-.356-.146.173a21.233 21.233 0 0 0-2.769 4.201.551.551 0 1 0 .987.493 20.124 20.124 0 0 1 2.624-3.982z"/></svg>
