<svg xmlns="http://www.w3.org/2000/svg" width="23" height="32" viewBox="0 0 23 32"><path fill="#e6eef4" d="M22.069 0H1.104C.494 0 .001.494.001 1.103v29.793c0 .61.494 1.103 1.103 1.103h20.965c.61 0 1.103-.494 1.103-1.103V1.103c0-.61-.494-1.103-1.103-1.103z"/><path fill="#d71e00" d="M11.586 14.897c.594-1.513 1.852-2.759 3.43-2.759 1.329 0 2.513.625 3.31 1.655 1.001 1.293 1.708 4.172-.482 6.363-1.111 1.111-6.258 6.327-6.258 6.327s-5.147-5.216-6.258-6.327c-2.19-2.19-1.483-5.069-.482-6.363.798-1.031 1.982-1.655 3.31-1.655 1.578 0 2.836 1.245 3.43 2.759zM4.965 8.828l.552-.552h-3.31a.552.552 0 1 0 0 1.104h3.31a.552.552 0 0 0 .552-.552v-.552a.552.552 0 1 0-1.104 0z"/><path fill="#d71e00" d="m5.324 5.093.146-.172.038-.05c.889-1.334-.007-3.188-1.61-3.215h-.037a2.207 2.207 0 0 0-2.207 2.207.552.552 0 1 0 1.104 0c0-.61.494-1.103 1.103-1.103h.028c.699.012 1.117.875.701 1.499l.459.306-.421-.356-.146.173a21.233 21.233 0 0 0-2.769 4.201.551.551 0 1 0 .987.493 20.124 20.124 0 0 1 2.624-3.982z"/></svg>
