<svg xmlns="http://www.w3.org/2000/svg" width="23" height="32" viewBox="0 0 23 32"><path fill="#e6eef4" d="M22.069 0H1.104C.494 0 .001.494.001 1.103v29.793c0 .61.494 1.103 1.103 1.103h20.965c.61 0 1.103-.494 1.103-1.103V1.103c0-.61-.494-1.103-1.103-1.103z"/><path d="M13.241 22.621s2.77 2.77 4.966-.552c1.143-1.729.368-3.413-.85-4.578l-5.244-5.165a.815.815 0 0 0-1.044 0l-5.32 5.165c-1.047 1.095-1.938 2.844-.782 4.578 2.207 3.31 4.965.552 4.965.552 0 1.414-.403 3.231-.52 3.73-.016.07.037.132.109.132h4.134a.107.107 0 0 0 .108-.131c-.117-.5-.52-2.326-.52-3.731zM4.965 8.828l.552-.552h-3.31a.552.552 0 1 0 0 1.104h3.31a.552.552 0 0 0 .552-.552v-.552a.552.552 0 1 0-1.104 0z"/><path d="m5.324 5.093.146-.172.038-.05c.889-1.334-.007-3.188-1.61-3.215h-.037a2.207 2.207 0 0 0-2.207 2.207.552.552 0 1 0 1.104 0c0-.61.494-1.103 1.103-1.103h.028c.699.012 1.117.875.701 1.499l.459.306-.421-.356-.146.173a21.233 21.233 0 0 0-2.769 4.201.551.551 0 1 0 .987.493 20.124 20.124 0 0 1 2.624-3.982z"/></svg>
