<svg xmlns="http://www.w3.org/2000/svg" viewBox="0 0 23 32"><path fill="#e6eef4" d="M22.069 0H1.104C.494 0 .001.494.001 1.103v29.793c0 .61.494 1.103 1.103 1.103h20.965c.61 0 1.103-.494 1.103-1.103V1.103c0-.61-.494-1.103-1.103-1.103z"/><path fill="#d71e00" d="m4.965 19.31 6.621 8.276 6.621-8.276-6.621-8.276zM3.31 6.069a2.207 2.207 0 1 0-.736-4.288c-.328.116-.614.314-.888.587a.552.552 0 0 0 .78.78c.166-.166.32-.272.475-.327a1.103 1.103 0 1 1 .369 2.143h-.55a.552.552 0 1 0 0 1.104h.55z"/><path fill="#d71e00" d="M3.311 9.379a2.207 2.207 0 1 0 0-4.414h-.552a.552.552 0 1 0 0 1.104h.552a1.103 1.103 0 1 1 0 2.206c-.3 0-.59-.136-.842-.388a.552.552 0 0 0-.78.78c.447.447 1.008.711 1.622.711z"/></svg>
