<svg xmlns="http://www.w3.org/2000/svg" width="32" height="32" viewBox="0 0 23 32"><path fill="#e6eef4" d="M22.069 0H1.104C.494 0 .001.494.001 1.103v29.793c0 .61.494 1.103 1.103 1.103h20.965c.61 0 1.103-.494 1.103-1.103V1.103c0-.61-.494-1.103-1.103-1.103z"/><path fill="#d71e00" d="M11.586 14.897c.594-1.513 1.852-2.759 3.43-2.759 1.329 0 2.513.625 3.31 1.655 1.001 1.293 1.708 4.172-.482 6.363-1.111 1.111-6.258 6.327-6.258 6.327s-5.147-5.216-6.258-6.327c-2.19-2.19-1.483-5.069-.482-6.363.798-1.031 1.982-1.655 3.31-1.655 1.578 0 2.836 1.245 3.43 2.759zM3.31 6.069a2.207 2.207 0 1 0-.736-4.288c-.328.116-.614.314-.888.587a.552.552 0 0 0 .78.78c.166-.166.32-.272.475-.327a1.103 1.103 0 1 1 .369 2.143h-.55a.552.552 0 1 0 0 1.104h.55z"/><path fill="#d71e00" d="M3.311 9.379a2.207 2.207 0 1 0 0-4.414h-.552a.552.552 0 1 0 0 1.104h.552a1.103 1.103 0 1 1 0 2.206c-.3 0-.59-.136-.842-.388a.552.552 0 0 0-.78.78c.447.447 1.008.711 1.622.711z"/></svg>
