<svg xmlns="http://www.w3.org/2000/svg" width="23" height="32" viewBox="0 0 23 32"><path fill="#e6eef4" d="M22.069 0H1.104C.494 0 .001.494.001 1.103v29.793c0 .61.494 1.103 1.103 1.103h20.965c.61 0 1.103-.494 1.103-1.103V1.103c0-.61-.494-1.103-1.103-1.103z"/><path fill="#d71e00" d="m4.965 19.31 6.621 8.276 6.621-8.276-6.621-8.276zM1.766 6.29a.552.552 0 0 0 .882.662l3.31-4.414a.552.552 0 0 0-.882-.662z"/><path fill="#d71e00" d="M4.965 8.828a.552.552 0 1 0 1.104 0V2.207a.552.552 0 1 0-1.104 0z"/><path fill="#d71e00" d="M2.207 6.069a.552.552 0 1 0 0 1.104h4.414a.552.552 0 1 0 0-1.104zm4.414 3.31a.552.552 0 1 0 0-1.104H4.414a.552.552 0 1 0 0 1.104z"/></svg>
