<svg xmlns="http://www.w3.org/2000/svg" width="23" height="32" viewBox="0 0 23 32"><path fill="#e6eef4" d="M22.069 0H1.104C.494 0 .001.494.001 1.103v29.793c0 .61.494 1.103 1.103 1.103h20.965c.61 0 1.103-.494 1.103-1.103V1.103c0-.61-.494-1.103-1.103-1.103z"/><path fill="#d71e00" d="m4.965 19.31 6.621 8.276 6.621-8.276-6.621-8.276zm0-16.551a.552.552 0 1 0 0-1.104H2.206a.552.552 0 1 0 0 1.104z"/><path fill="#d71e00" d="M1.655 4.965a.552.552 0 1 0 1.104 0V2.206a.552.552 0 1 0-1.104 0z"/><path fill="#d71e00" d="M3.495 8.399a2.268 2.268 0 1 0-1.701-3.768.551.551 0 1 0 .828.73 1.166 1.166 0 1 1 0 1.541.552.552 0 0 0-.828.73 2.262 2.262 0 0 0 1.701.768z"/></svg>
