<svg xmlns="http://www.w3.org/2000/svg" viewBox="0 0 23 32"><path fill="#e6eef4" d="M22.069 0H1.104C.494 0 .001.494.001 1.103v29.793c0 .61.494 1.103 1.103 1.103h20.965c.61 0 1.103-.494 1.103-1.103V1.103c0-.61-.494-1.103-1.103-1.103z"/><path d="M4.965 2.759a.552.552 0 1 0 0-1.104H2.206a.552.552 0 1 0 0 1.104z"/><path d="M1.655 4.965a.552.552 0 1 0 1.104 0V2.206a.552.552 0 1 0-1.104 0z"/><path d="M3.495 8.399a2.268 2.268 0 1 0-1.701-3.768.551.551 0 1 0 .828.73 1.166 1.166 0 1 1 0 1.541.552.552 0 0 0-.828.73 2.262 2.262 0 0 0 1.701.768zm9.746 14.222s2.77 2.77 4.966-.552c1.143-1.729.368-3.413-.85-4.578l-5.244-5.165a.815.815 0 0 0-1.044 0l-5.32 5.165c-1.047 1.095-1.938 2.844-.782 4.578 2.207 3.31 4.965.552 4.965.552 0 1.414-.403 3.231-.52 3.73-.016.07.037.132.109.132h4.134a.107.107 0 0 0 .108-.131c-.117-.5-.52-2.326-.52-3.731z"/></svg>
