<svg xmlns="http://www.w3.org/2000/svg" viewBox="0 0 23 32"><path fill="#e6eef4" d="M22.068 0H1.103C.493 0 0 .494 0 1.103v29.793c0 .61.494 1.103 1.103 1.103h20.965c.61 0 1.103-.494 1.103-1.103V1.103c0-.61-.494-1.103-1.103-1.103z"/><path d="M3.861 8.828a2.207 2.207 0 1 0 0-4.414 2.207 2.207 0 0 0 0 4.414zm0-3.311a1.103 1.103 0 1 1 0 2.205 1.103 1.103 0 0 1 0-2.205z"/><path d="M5.516 2.759a.552.552 0 1 0 0-1.104c-2.25 0-3.862 2.046-3.862 4.965a.552.552 0 1 0 1.104 0c0-2.359 1.183-3.862 2.759-3.862zM9.326 18.616c0 .547.15 1.095.203 1.268a.044.044 0 0 1-.043.056H7.84a.044.044 0 0 1-.042-.056c.052-.173.203-.727.203-1.268a1.25 1.25 0 0 1-.748.24c-.807 0-1.507-.678-1.456-1.495.028-.46.32-.853.71-1.098a1.345 1.345 0 0 1 1.08-.186 1.411 1.411 0 1 1 2.467-1.152c.073.44-.058.85-.313 1.152.327-.08.692-.06 1.087.191.388.247.68.64.706 1.098.047.815-.655 1.49-1.46 1.49-.274 0-.534-.085-.748-.24z"/><path fill="#d71e00" d="M8.485 21.508c.238-.606.741-1.104 1.372-1.104.532 0 1.005.25 1.324.662.4.517.683 1.669-.193 2.545-.444.445-2.503 2.53-2.503 2.53s-2.059-2.085-2.503-2.53c-.876-.876-.593-2.027-.193-2.545.32-.412.793-.662 1.324-.662.631 0 1.135.498 1.372 1.104z"/><path d="M15.555 24.658s1.108 1.108 1.986-.221c.457-.692.147-1.365-.34-1.831l-2.097-2.066c-.118-.101-.3-.101-.418 0l-2.128 2.066c-.419.438-.775 1.137-.313 1.83.883 1.325 1.986.222 1.986.222 0 .565-.161 1.292-.208 1.492-.006.028.015.052.044.052h1.653c.029 0 .05-.024.044-.052-.047-.2-.208-.93-.208-1.492z"/><path fill="#d71e00" d="m12.354 16.806 2.527 3.158 2.527-3.158-2.527-3.16z"/></svg>
