<svg xmlns="http://www.w3.org/2000/svg" viewBox="0 0 23 32"><path fill="#e6eef4" d="M22.069 0H1.104C.494 0 .001.494.001 1.103v29.793c0 .61.494 1.103 1.103 1.103h20.965c.61 0 1.103-.494 1.103-1.103V1.103c0-.61-.494-1.103-1.103-1.103z"/><path fill="#d71e00" d="m4.965 19.31 6.621 8.276 6.621-8.276-6.621-8.276zM3.862 8.828a2.207 2.207 0 1 0 0-4.414 2.207 2.207 0 0 0 0 4.414zm0-3.311a1.103 1.103 0 1 1 0 2.205 1.103 1.103 0 0 1 0-2.205z"/><path fill="#d71e00" d="M5.517 2.759a.552.552 0 1 0 0-1.104c-2.25 0-3.862 2.046-3.862 4.965a.552.552 0 1 0 1.104 0c0-2.359 1.183-3.862 2.759-3.862z"/></svg>
