<svg xmlns="http://www.w3.org/2000/svg" width="23" height="32" viewBox="0 0 23 32"><path fill="#e6eef4" d="M22.069 0H1.104C.494 0 .001.494.001 1.103v29.793c0 .61.494 1.103 1.103 1.103h20.965c.61 0 1.103-.494 1.103-1.103V1.103c0-.61-.494-1.103-1.103-1.103z"/><path fill="#d71e00" d="m4.965 19.31 6.621 8.276 6.621-8.276-6.621-8.276zm.552-16.551a.552.552 0 1 0 0-1.104h-3.31a.552.552 0 1 0 0 1.104z"/><path fill="#d71e00" d="M2.759 2.207a.552.552 0 1 0-1.104 0v.552a.552.552 0 1 0 1.104 0zm.007 5.426a.552.552 0 1 0 1.089.183c.384-2.283.819-3.348 2.122-5.303a.552.552 0 0 0-.918-.612C3.672 3.982 3.178 5.192 2.767 7.633z"/></svg>
