<svg xmlns="http://www.w3.org/2000/svg" viewBox="0 0 23 32"><path fill="#e6eef4" d="M22.069 0H1.104C.494 0 .001.494.001 1.103v29.793c0 .61.494 1.103 1.103 1.103h20.965c.61 0 1.103-.494 1.103-1.103V1.103c0-.61-.494-1.103-1.103-1.103z"/><path d="M13.241 22.621s2.77 2.77 4.966-.552c1.143-1.729.368-3.413-.85-4.578l-5.244-5.165a.815.815 0 0 0-1.044 0l-5.32 5.165c-1.047 1.095-1.938 2.844-.782 4.578 2.207 3.31 4.965.552 4.965.552 0 1.414-.403 3.231-.52 3.73-.016.07.037.132.109.132h4.134a.107.107 0 0 0 .108-.131c-.117-.5-.52-2.326-.52-3.731zM5.517 2.759a.552.552 0 1 0 0-1.104h-3.31a.552.552 0 1 0 0 1.104z"/><path d="M2.759 2.207a.552.552 0 1 0-1.104 0v.552a.552.552 0 1 0 1.104 0zm.007 5.426a.552.552 0 1 0 1.089.183c.384-2.283.819-3.348 2.122-5.303a.552.552 0 0 0-.918-.612C3.672 3.982 3.178 5.192 2.767 7.633z"/></svg>
