<svg xmlns="http://www.w3.org/2000/svg" viewBox="0 0 23 32"><path fill="#e6eef4" d="M22.069 0H1.104C.494 0 .001.494.001 1.103v29.793c0 .61.494 1.103 1.103 1.103h20.965c.61 0 1.103-.494 1.103-1.103V1.103c0-.61-.494-1.103-1.103-1.103z"/><path d="M13.241 23.172c0 1.369.378 2.739.508 3.171a.11.11 0 0 1-.107.14H9.528a.11.11 0 0 1-.107-.139c.13-.434.509-1.819.509-3.171a3.125 3.125 0 0 1-1.87.599c-2.017 0-3.767-1.694-3.641-3.736.071-1.149.802-2.134 1.777-2.745.978-.614 1.885-.663 2.696-.466a3.507 3.507 0 0 1-.832-2.273 3.529 3.529 0 0 1 4.229-3.457 3.52 3.52 0 0 1 2.771 2.851 3.523 3.523 0 0 1-.781 2.879c.817-.198 1.731-.147 2.717.479.97.616 1.699 1.599 1.765 2.745.118 2.037-1.637 3.724-3.65 3.724a3.18 3.18 0 0 1-1.87-.599zM3.862 1.655a2.207 2.207 0 1 0 0 4.414 2.207 2.207 0 0 0 0-4.414zm0 3.31a1.103 1.103 0 1 1 0-2.205 1.103 1.103 0 0 1 0 2.205z"/><path d="M3.862 4.965a2.207 2.207 0 1 0 0 4.414 2.207 2.207 0 0 0 0-4.414zm0 3.311a1.103 1.103 0 1 1 0-2.205 1.103 1.103 0 0 1 0 2.205z"/></svg>
