<svg xmlns="http://www.w3.org/2000/svg" width="23" height="32" viewBox="0 0 23 32"><path fill="#e6eef4" d="M22.069 0H1.104C.494 0 .001.494.001 1.103v29.793c0 .61.494 1.103 1.103 1.103h20.965c.61 0 1.103-.494 1.103-1.103V1.103c0-.61-.494-1.103-1.103-1.103z"/><path fill="#d71e00" d="m4.965 19.31 6.621 8.276 6.621-8.276-6.621-8.276zM3.862 1.655a2.207 2.207 0 1 0 0 4.414 2.207 2.207 0 0 0 0-4.414zm0 3.31a1.103 1.103 0 1 1 0-2.205 1.103 1.103 0 0 1 0 2.205z"/><path fill="#d71e00" d="M3.862 4.965a2.207 2.207 0 1 0 0 4.414 2.207 2.207 0 0 0 0-4.414zm0 3.311a1.103 1.103 0 1 1 0-2.205 1.103 1.103 0 0 1 0 2.205z"/></svg>
