<svg xmlns="http://www.w3.org/2000/svg" viewBox="0 0 23 32"><path fill="#e6eef4" d="M22.069 0H1.104C.494 0 .001.494.001 1.103v29.793c0 .61.494 1.103 1.103 1.103h20.965c.61 0 1.103-.494 1.103-1.103V1.103c0-.61-.494-1.103-1.103-1.103z"/><path fill="#d71e00" d="m4.965 19.31 6.621 8.276 6.621-8.276-6.621-8.276zM4.937 2.032a.552.552 0 0 0-1.047 0L1.683 8.653a.553.553 0 0 0 1.047.349l2.207-6.621H3.89l2.207 6.621a.552.552 0 0 0 1.047-.349z"/><path fill="#d71e00" d="M5.517 7.172a.552.552 0 1 0 0-1.104H3.31a.552.552 0 1 0 0 1.104z"/></svg>
