<svg xmlns="http://www.w3.org/2000/svg" width="23" height="32" viewBox="0 0 23 32"><path fill="#e6eef4" d="M22.069 0H1.104C.494 0 .001.494.001 1.103v29.793c0 .61.494 1.103 1.103 1.103h20.965c.61 0 1.103-.494 1.103-1.103V1.103c0-.61-.494-1.103-1.103-1.103z"/><path fill="#d71e00" d="m4.965 19.31 6.621 8.276 6.621-8.276-6.621-8.276zM3.862 8.828a2.212 2.212 0 0 0 2.207-2.207V2.207a.552.552 0 1 0-1.104 0v4.414c0 .606-.498 1.103-1.103 1.103s-1.103-.498-1.103-1.103a.552.552 0 1 0-1.104 0c0 1.215.992 2.207 2.207 2.207z"/><path fill="#d71e00" d="M6.621 2.759a.552.552 0 1 0 0-1.104H4.414a.552.552 0 1 0 0 1.104z"/></svg>
