<svg xmlns="http://www.w3.org/2000/svg" viewBox="0 0 23 32"><path fill="#e6eef4" d="M22.069 0H1.104C.494 0 .001.494.001 1.103v29.793c0 .61.494 1.103 1.103 1.103h20.965c.61 0 1.103-.494 1.103-1.103V1.103c0-.61-.494-1.103-1.103-1.103z"/><path fill="#d71e00" d="m4.965 19.31 6.621 8.276 6.621-8.276-6.621-8.276zM1.655 8.828a.552.552 0 1 0 1.104 0V2.207a.552.552 0 1 0-1.104 0z"/><path fill="#d71e00" d="M5.936 2.566a.552.552 0 0 0-.838-.718L1.788 5.71a.552.552 0 0 0 .838.718z"/><path fill="#d71e00" d="M3.759 4.645a.552.552 0 0 0-.898.642L5.62 9.149a.552.552 0 0 0 .898-.642z"/></svg>
