<svg xmlns="http://www.w3.org/2000/svg" width="23" height="32" viewBox="0 0 23 32"><path fill="#e6eef4" d="M22.069 0H1.104C.494 0 .001.494.001 1.103v29.793c0 .61.494 1.103 1.103 1.103h20.965c.61 0 1.103-.494 1.103-1.103V1.103c0-.61-.494-1.103-1.103-1.103z"/><path d="M13.241 22.621s2.77 2.77 4.966-.552c1.143-1.729.368-3.413-.85-4.578l-5.244-5.165a.815.815 0 0 0-1.044 0l-5.32 5.165c-1.047 1.095-1.938 2.844-.782 4.578 2.207 3.31 4.965.552 4.965.552 0 1.414-.403 3.231-.52 3.73-.016.07.037.132.109.132h4.134a.107.107 0 0 0 .108-.131c-.117-.5-.52-2.326-.52-3.731zM1.655 8.828a.552.552 0 1 0 1.104 0V2.207a.552.552 0 1 0-1.104 0z"/><path d="M5.936 2.566a.552.552 0 0 0-.838-.718L1.788 5.71a.552.552 0 0 0 .838.718z"/><path d="M3.759 4.645a.552.552 0 0 0-.898.642L5.62 9.149a.552.552 0 0 0 .898-.642z"/></svg>
