<svg xmlns="http://www.w3.org/2000/svg" viewBox="0 0 23 32"><path fill="#e6eef4" d="M22.069 0H1.104C.494 0 .001.494.001 1.103v29.793c0 .61.494 1.103 1.103 1.103h20.965c.61 0 1.103-.494 1.103-1.103V1.103c0-.61-.494-1.103-1.103-1.103z"/><path fill="#d71e00" d="m4.965 19.31 6.621 8.276 6.621-8.276-6.621-8.276zM1.655 3.862v3.31c0 1.215.992 2.207 2.207 2.207s2.207-.992 2.207-2.207v-3.31c0-1.215-.992-2.207-2.207-2.207s-2.207.992-2.207 2.207zm3.31 0v3.31c0 .606-.498 1.103-1.103 1.103s-1.103-.498-1.103-1.103v-3.31c0-.606.498-1.103 1.103-1.103s1.103.498 1.103 1.103z"/><path fill="#d71e00" d="M5.738 9.269a.552.552 0 0 0 .662-.882L4.193 6.732a.552.552 0 0 0-.662.882z"/></svg>
