<svg xmlns="http://www.w3.org/2000/svg" width="31" height="32" viewBox="0 0 31 32"><path fill="#dae1e5" d="M9.887 30.86V4.408c0-.609.494-1.102 1.102-1.102h10.676L20.798.817a1.102 1.102 0 0 0-1.35-.779L.817 4.283a1.102 1.102 0 0 0-.779 1.35l6.846 25.551c.157.588.762.937 1.35.779l1.838-.493a1.1 1.1 0 0 1-.185-.61z"/><path fill="#e6eef4" d="M30.277 3.307H10.99c-.609 0-1.102.493-1.102 1.102v26.452c0 .609.493 1.102 1.102 1.102h19.287c.609 0 1.102-.493 1.102-1.102V4.409c0-.609-.493-1.102-1.102-1.102z"/><path fill="#d71e00" d="M21.096 18.692c-.207.053-.414.105-.621.155-.247.061-.483.004-.728.069a4.133 4.133 0 0 0-.088 1.242c.047.473.49.821.99.776s.866-.464.819-.938a1.745 1.745 0 0 1-.002-.315l.002-.072c.002-.038.005-.075.009-.113l.002-.038.007-.082v-.007c.002-.035.004-.069.009-.104.005-.032.07-.308.081-.339.011-.028-.156.215-.144.187.004-.008.019-.063.023-.072-.051-.036.006-.054-.043-.093a19.791 19.791 0 0 1-.317-.258zm1.023-2.886c-1.487.884-3.001 3.209-2.174 4.122.066.031.126.08.174.148.128.084.289.148.487.186.594.115-.71-.306-.231-.205.31.065.545.128.724.188a1.2 1.2 0 0 1 .054-.142l.027-.06c.054-.115.101-.232.146-.351.014-.037.029-.07.045-.103.174-.863 1.054-1.935 1.712-2.326l.295-.772zm.669 1.653c1.79-.971 2.41-3.134 1.384-4.83s-3.307-2.283-5.097-1.312c-.942.511-1.588 1.372-1.803 2.359-.101.466.215.921.707 1.017s.972-.204 1.073-.67a1.82 1.82 0 0 1 .926-1.212c.919-.499 2.091-.197 2.617.674s.208 1.982-.711 2.48l-.328.76zm-1.354 5.376c0 .51-.412.924-.919.924a.921.921 0 0 1-.919-.924c0-.51.412-.924.919-.924.508 0 .919.414.919.924z"/></svg>
