<svg xmlns="http://www.w3.org/2000/svg" viewBox="0 0 23 32"><path fill="#e6eef4" d="M22.069 0H1.104C.494 0 .001.494.001 1.103v29.793c0 .61.494 1.103 1.103 1.103h20.965c.61 0 1.103-.494 1.103-1.103V1.103c0-.61-.494-1.103-1.103-1.103z"/><path fill="#d71e00" d="M11.636 17.388a51.03 51.03 0 0 1-.62.155c-.248.061-.484.004-.729.07a4.133 4.133 0 0 0-.088 1.241c.047.473.49.821.99.776s.866-.464.82-.938a1.745 1.745 0 0 1-.003-.315l.002-.072c.002-.038.005-.075.01-.113l.001-.038.007-.082v-.007a.915.915 0 0 1 .01-.104c.004-.032.07-.308.08-.339.011-.028-.156.215-.144.187.004-.008.02-.063.023-.072-.05-.036.006-.054-.043-.093a19.791 19.791 0 0 1-.317-.258zm1.023-2.886c-1.487.884-3 3.21-2.174 4.122.066.031.126.08.174.148.128.084.29.148.487.186.594.115-.71-.306-.23-.205.31.065.544.128.723.188a1.2 1.2 0 0 1 .054-.142l.027-.06c.054-.115.101-.232.146-.35.014-.038.03-.07.045-.104.174-.863 1.054-1.935 1.712-2.326l.295-.772zm.67 1.653c1.79-.97 2.41-3.134 1.383-4.83-1.026-1.696-3.307-2.283-5.097-1.312-.942.511-1.588 1.372-1.803 2.36-.1.465.215.92.707 1.016s.972-.204 1.073-.67a1.82 1.82 0 0 1 .926-1.212c.92-.499 2.091-.197 2.617.674s.208 1.982-.71 2.48l-.329.76zm-1.355 5.376c0 .51-.412.924-.919.924-.508 0-.919-.414-.919-.924s.412-.924.92-.924c.507 0 .918.414.918.924z"/></svg>
